# xmcd
#
# Track frame offsets: 
#        150
#        12705
#        27133
#        48349
#        62156
#        74671
#        91280
#        107568
#        120506
#        135139
#        151364
#        166892
#        190020
#
# Disc length: 2752 seconds
#
# Revision: 0
# Processed by: cddbd v1.5.2PL0 Copyright (c) Steve Scherf et al.
# Submitted via: ExactAudioCopyFreeDBPlugin 1.0
#
DISCID=a40abe0d
DTITLE=Silvertones - Sivertone Avenue
DYEAR=2014
DGENRE=Blues
TTITLE0=Knockin' On My Baby's Door
TTITLE1=Sancho
TTITLE2=All Night Corner
TTITLE3=Dallas, Austin, And Back again
TTITLE4=Cajun Love
TTITLE5=Woke Up The Dead
TTITLE6=Silvertone Avenue
TTITLE7=Out On The Town
TTITLE8=Good Lord Willing
TTITLE9=(I Have) Dreams Of You
TTITLE10=Hoedown Jones
TTITLE11=Whiskeyhead
TTITLE12=Silvertone Trail
EXTD=
EXTT0=
EXTT1=
EXTT2=
EXTT3=
EXTT4=
EXTT5=
EXTT6=
EXTT7=
EXTT8=
EXTT9=
EXTT10=
EXTT11=
EXTT12=
PLAYORDER=
